PathFileType	4	(X/Y/Z)	G:\Shared drives\HIT\Data\HapticPilot\Subject1\Edited\static1.trc
DataRate	CameraRate	NumFrames	NumMarkers	Units	OrigDataRate	OrigDataStartFrame	OrigNumFrames
50.00	50.00	       6	38	mm	50.00	1	       227
Frame#	Time	r_knee			r_shank(antsup)			r_ankle			r_calc			r_5meta			r_toe			L_knee			L_shank(ant_sup)			L_ankle			L_calc			L_5meta			L_toe			r_mknee			r_mankle			L_mknee			L_mankle			r_sh2			r_sh3			r_sh4			L_sh2			L_sh3			r_thigh1			r_thigh2			r_thigh3			r_thigh4			r_thigh5			L_thigh1			L_thigh2			L_thigh3			L_thigh4			r.ASIS			r.PSIS			L.ASIS			L.PSIS			C7			R_Shoulder			L_Shoulder			Sternum			
		X1	Y1	Z1	X2	Y2	Z2	X3	Y3	Z3	X4	Y4	Z4	X5	Y5	Z5	X6	Y6	Z6	X7	Y7	Z7	X8	Y8	Z8	X9	Y9	Z9	X10	Y10	Z10	X11	Y11	Z11	X12	Y12	Z12	X13	Y13	Z13	X14	Y14	Z14	X15	Y15	Z15	X16	Y16	Z16	X17	Y17	Z17	X18	Y18	Z18	X19	Y19	Z19	X20	Y20	Z20	X21	Y21	Z21	X22	Y22	Z22	X23	Y23	Z23	X24	Y24	Z24	X25	Y25	Z25	X26	Y26	Z26	X27	Y27	Z27	X28	Y28	Z28	X29	Y29	Z29	X30	Y30	Z30	X31	Y31	Z31	X32	Y32	Z32	X33	Y33	Z33	X34	Y34	Z34	X35	Y35	Z35	X36	Y36	Z36	X37	Y37	Z37	X38	Y38	Z38	

1	0.000	771.87170	408.09726	578.97900	786.39996	403.52188	491.74826	734.90472	408.86313	114.08256	646.31927	451.93900	71.19546	847.10223	382.27618	39.40536	885.95410	445.03528	73.73859	765.19012	731.64148	573.92358	790.39764	733.12762	456.43893	705.18451	732.18921	113.32227	629.64191	681.36267	73.45808	820.98615	777.79071	42.54174	868.04828	721.34888	71.14353	769.36194	534.03436	558.35645	746.76495	504.97183	120.73658	783.08667	609.44708	563.13702	736.66718	642.29919	120.73051	783.39929	400.54404	371.61618	711.45325	391.35867	491.34326	701.32751	385.02673	375.44864	702.78436	751.79645	476.25766	690.94720	753.38995	354.26974	839.60266	391.61591	898.87952	839.33832	395.07480	783.95941	793.22083	382.64059	750.54755	726.61035	379.84045	892.77209	732.05737	392.27802	775.75031	852.92694	751.36450	840.49084	854.46729	742.82605	702.35999	737.59814	770.03113	839.09583	741.80005	750.99426	704.02338	861.91840	445.15314	1095.24023	672.82190	537.90350	1126.39209	871.10150	703.28271	1096.69897	681.17059	620.47168	1125.46375	716.44006	584.90991	1608.18640	760.71826	419.73639	1582.86731	784.54102	761.17334	1577.08630	859.82983	577.35468	1537.57178	
2	0.020	771.92828	408.20190	578.96265	786.44263	403.56946	491.77292	734.91333	408.84537	114.12684	646.34442	451.96573	71.16306	847.12280	382.29575	39.40648	885.99323	445.06317	73.71549	765.28735	731.68329	573.87408	790.42059	733.13928	456.39319	705.19690	732.19513	113.33681	629.64984	681.37738	73.40968	820.98700	777.81818	42.54409	868.02130	721.39551	71.11590	769.40131	534.09326	558.36261	746.75787	504.99911	120.77248	783.05737	609.46973	563.15002	736.59979	642.31873	120.67226	783.47369	400.65680	371.60797	711.51068	391.38461	491.37906	701.33600	385.07974	375.46390	702.85620	751.87378	476.25604	691.11377	753.41608	354.33881	839.68774	391.69476	898.91321	839.29517	395.16486	783.91553	793.22156	382.71103	750.54694	726.68579	379.88217	892.77509	732.07599	392.33948	775.75586	853.10376	751.37646	840.47235	854.65833	742.75452	702.33295	737.85327	770.02997	839.30029	741.96240	751.11523	704.10492	862.02881	445.23990	1095.23718	672.94598	537.98358	1126.38464	871.62500	703.38147	1097.05640	681.39703	620.60547	1125.45251	716.44910	585.06738	1608.18079	760.81189	419.85434	1582.83850	784.71765	761.35962	1577.14612	859.94824	577.50854	1537.64209	
3	0.040	772.00330	408.25259	578.96350	786.50208	403.65958	491.76779	734.91620	408.88654	114.11618	646.40118	452.01871	71.10897	847.08868	382.30795	39.40609	886.01111	445.07687	73.69657	765.45764	731.76691	573.87042	790.49261	733.19812	456.39981	705.25879	732.21490	113.27950	629.64148	681.40424	73.35044	820.98834	777.85504	42.49507	868.05585	721.40790	71.08456	769.53052	534.17261	558.34363	746.81152	505.01569	120.75906	783.05731	609.52759	563.09436	736.64148	642.38519	120.63752	783.49469	400.68271	371.60425	711.55981	391.50586	491.39133	701.37195	385.09079	375.51599	702.88000	751.95917	476.24268	691.05707	753.43939	354.24319	839.76819	391.74777	898.85333	839.22925	395.19620	783.98090	793.33154	382.73923	750.54272	726.77899	379.99561	892.77252	732.17639	392.38104	775.74823	853.26703	751.40710	840.45673	854.81628	742.74530	702.32135	738.00867	770.11597	839.30457	742.73969	751.35388	704.47180	862.11987	445.32797	1095.22021	673.05774	538.08044	1126.37427	871.78131	703.45007	1097.01160	681.58130	620.71686	1125.39636	716.53918	585.25995	1608.09351	760.96234	419.99030	1582.84851	784.92883	761.53827	1577.14941	860.06592	577.68256	1537.74585	
4	0.060	772.12140	408.35062	578.95813	786.60681	403.70291	491.78867	734.93817	408.89597	114.11462	646.39099	452.05609	71.12958	847.09784	382.32382	39.37837	886.01239	445.06522	73.69281	765.48407	731.78674	573.83405	790.50946	733.25085	456.36292	705.19812	732.22290	113.28432	629.65723	681.38623	73.36645	820.98700	777.85205	42.48308	868.04187	721.43921	71.09139	769.60004	534.25317	558.34808	746.81830	505.04318	120.77871	783.06879	609.60364	563.13379	736.60278	642.31104	120.67283	783.55469	400.74808	371.62442	711.68652	391.61887	491.39725	701.50366	385.15378	375.52441	702.89215	751.95380	476.23868	691.14429	753.53979	354.24506	839.88538	391.84210	898.87146	839.46490	395.32068	783.98547	793.52130	382.85922	750.58008	726.92139	380.08545	892.81140	732.29724	392.45911	775.75745	853.26196	751.49438	840.47247	854.87250	742.81384	702.29620	738.02661	770.36023	839.06311	742.21631	751.30792	704.14197	862.26385	445.42871	1095.25842	673.22534	538.16949	1126.34814	871.83777	703.61005	1096.96216	681.69495	620.77301	1125.38062	716.61047	585.40802	1608.02368	761.08569	420.13965	1582.85571	785.05884	761.69006	1577.22107	860.18976	577.84381	1537.83423	
5	0.080	772.26392	408.42047	578.95886	786.70001	403.74716	491.78204	734.94745	408.91428	114.11028	646.40393	451.99652	71.14412	847.09363	382.30383	39.41504	886.00525	445.06387	73.69420	765.51971	731.82739	573.83057	790.48737	733.29352	456.32727	705.23755	732.19537	113.28506	629.62592	681.38934	73.37527	821.00293	777.82275	42.49662	868.04669	721.39392	71.07278	769.64850	534.32953	558.33044	746.79578	505.04706	120.77359	783.18140	609.65961	563.13080	736.64880	642.33215	120.70274	783.62531	400.76407	371.62399	711.74622	391.65631	491.42752	701.57184	385.18353	375.54385	702.89172	751.97577	476.20764	691.18604	753.54028	354.16321	840.00714	391.98276	898.83014	839.51630	395.40994	783.94708	793.59436	382.96997	750.57404	727.00555	380.19211	892.75757	732.41962	392.51404	775.75995	853.23871	751.62909	840.46649	854.87524	742.89819	702.26965	737.98566	770.47229	838.98566	742.21082	751.27332	704.02789	862.41815	445.62262	1095.21777	673.26147	538.26111	1126.35413	871.87494	703.74677	1096.93909	681.68292	620.95044	1125.38257	716.61267	585.59058	1608.01843	761.26593	420.28824	1582.87085	785.11035	761.82996	1577.26343	860.34570	578.06689	1537.92712	
6	0.100	772.39337	408.45389	578.97009	786.77802	403.86771	491.79187	734.95459	408.90842	114.14864	646.37677	451.97604	71.22687	847.08728	382.29187	39.39295	886.01233	445.07611	73.71471	765.49414	731.89081	573.91455	790.52606	733.33447	456.32114	705.19067	732.22272	113.34409	629.63409	681.34668	73.39642	820.98798	777.82349	42.55645	868.04645	721.37061	71.12365	769.76355	534.40253	558.30878	746.81244	505.06171	120.78922	783.18573	609.71472	563.08746	736.67957	642.31805	120.69966	783.71796	400.82263	371.64398	711.89386	391.71152	491.42181	701.71753	385.21771	375.57068	702.92358	752.01685	476.22092	691.18732	753.56799	354.24356	840.16144	392.08929	898.85333	839.61951	395.56293	783.92487	793.71222	383.01511	750.58411	727.18982	380.30447	892.73340	732.53131	392.55994	775.75873	853.21790	751.71094	840.43695	854.77948	743.07709	702.31342	737.92517	770.48010	839.00421	742.68756	751.49463	704.47858	862.47290	445.82504	1095.16455	673.39160	538.31921	1126.42737	871.86627	703.91998	1096.91150	681.70764	620.95184	1125.46265	716.69702	585.68091	1608.02600	761.41803	420.41653	1582.91125	785.29291	761.98309	1577.34058	860.44116	578.21216	1537.98767	
